<mxfile host="app.diagrams.net" modified="2024-06-04T12:05:08.825Z" agent="Mozilla/5.0 (Windows NT 10.0; Win64; x64) AppleWebKit/537.36 (KHTML, like Gecko) Chrome/116.0.0.0 Safari/537.36" etag="sLtO_Je5sbJgBNl6z2hM" version="24.4.13" type="github">
  <diagram id="prtHgNgQTEPvFCAcTncT" name="Page-1">
    <mxGraphModel dx="1221" dy="769" grid="1" gridSize="10" guides="1" tooltips="1" connect="1" arrows="1" fold="1" page="1" pageScale="1" pageWidth="827" pageHeight="1169" math="0" shadow="0">
      <root>
        <mxCell id="0" />
        <mxCell id="1" parent="0" />
        <mxCell id="09HEf_mXD0H9hIQZzznc-1" value="&lt;h3&gt;&lt;p class=&quot;MsoNormal&quot;&gt;&lt;span style=&quot;mso-spacerun:&#39;yes&#39;;font-family:宋体;mso-ascii-font-family:Calibri;&lt;br/&gt;mso-hansi-font-family:Calibri;mso-bidi-font-family:&#39;Times New Roman&#39;;font-size:10.5000pt;&lt;br/&gt;mso-font-kerning:1.0000pt;&quot;&gt;工资保证金备案管理&lt;/span&gt;&lt;/p&gt;&lt;/h3&gt;" style="swimlane;childLayout=stackLayout;resizeParent=1;resizeParentMax=0;startSize=20;html=1;" vertex="1" parent="1">
          <mxGeometry x="170.00000000000045" y="190" width="1039.9999999999986" height="570" as="geometry" />
        </mxCell>
        <mxCell id="09HEf_mXD0H9hIQZzznc-39" value="网办大厅" style="swimlane;startSize=20;html=1;" vertex="1" parent="09HEf_mXD0H9hIQZzznc-1">
          <mxGeometry y="20" width="150" height="550" as="geometry" />
        </mxCell>
        <mxCell id="09HEf_mXD0H9hIQZzznc-41" style="edgeStyle=orthogonalEdgeStyle;rounded=0;orthogonalLoop=1;jettySize=auto;html=1;entryX=0.5;entryY=0;entryDx=0;entryDy=0;" edge="1" parent="09HEf_mXD0H9hIQZzznc-39" target="09HEf_mXD0H9hIQZzznc-45">
          <mxGeometry relative="1" as="geometry">
            <mxPoint x="74.99999999999955" y="70" as="sourcePoint" />
          </mxGeometry>
        </mxCell>
        <mxCell id="09HEf_mXD0H9hIQZzznc-43" style="edgeStyle=orthogonalEdgeStyle;rounded=0;orthogonalLoop=1;jettySize=auto;html=1;entryX=0.5;entryY=0;entryDx=0;entryDy=0;" edge="1" parent="09HEf_mXD0H9hIQZzznc-39" target="09HEf_mXD0H9hIQZzznc-40">
          <mxGeometry relative="1" as="geometry">
            <mxPoint x="75.09999999999945" y="169.92558139534935" as="sourcePoint" />
          </mxGeometry>
        </mxCell>
        <mxCell id="09HEf_mXD0H9hIQZzznc-44" value="NO" style="edgeLabel;html=1;align=center;verticalAlign=middle;resizable=0;points=[];" vertex="1" connectable="0" parent="09HEf_mXD0H9hIQZzznc-43">
          <mxGeometry x="-0.1954" y="-1" relative="1" as="geometry">
            <mxPoint as="offset" />
          </mxGeometry>
        </mxCell>
        <mxCell id="09HEf_mXD0H9hIQZzznc-2" value="一体化经办平台" style="swimlane;startSize=20;html=1;" vertex="1" parent="09HEf_mXD0H9hIQZzznc-1">
          <mxGeometry x="150" y="20" width="150" height="550" as="geometry" />
        </mxCell>
        <mxCell id="09HEf_mXD0H9hIQZzznc-12" value="&lt;span style=&quot;color: rgb(0, 0, 0); font-family: Helvetica; font-size: 12px; font-style: normal; font-variant-ligatures: normal; font-variant-caps: normal; font-weight: 400; letter-spacing: normal; orphans: 2; text-align: center; text-indent: 0px; text-transform: none; widows: 2; word-spacing: 0px; -webkit-text-stroke-width: 0px; white-space: normal; background-color: rgb(251, 251, 251); text-decoration-thickness: initial; text-decoration-style: initial; text-decoration-color: initial; display: inline !important; float: none;&quot;&gt;经办人员填写信息&lt;/span&gt;" style="rounded=0;whiteSpace=wrap;html=1;" vertex="1" parent="09HEf_mXD0H9hIQZzznc-2">
          <mxGeometry x="14.999999999999545" y="220" width="120" height="60" as="geometry" />
        </mxCell>
        <mxCell id="09HEf_mXD0H9hIQZzznc-20" style="edgeStyle=orthogonalEdgeStyle;rounded=0;orthogonalLoop=1;jettySize=auto;html=1;entryX=0.5;entryY=0;entryDx=0;entryDy=0;" edge="1" parent="09HEf_mXD0H9hIQZzznc-2" source="09HEf_mXD0H9hIQZzznc-15" target="09HEf_mXD0H9hIQZzznc-19">
          <mxGeometry relative="1" as="geometry" />
        </mxCell>
        <mxCell id="09HEf_mXD0H9hIQZzznc-15" value="Start" style="ellipse;whiteSpace=wrap;html=1;" vertex="1" parent="09HEf_mXD0H9hIQZzznc-2">
          <mxGeometry x="17.5" y="30" width="115" height="40" as="geometry" />
        </mxCell>
        <mxCell id="09HEf_mXD0H9hIQZzznc-22" style="edgeStyle=orthogonalEdgeStyle;rounded=0;orthogonalLoop=1;jettySize=auto;html=1;entryX=0.5;entryY=0;entryDx=0;entryDy=0;" edge="1" parent="09HEf_mXD0H9hIQZzznc-2" source="09HEf_mXD0H9hIQZzznc-19" target="09HEf_mXD0H9hIQZzznc-12">
          <mxGeometry relative="1" as="geometry" />
        </mxCell>
        <mxCell id="09HEf_mXD0H9hIQZzznc-30" value="NO" style="edgeLabel;html=1;align=center;verticalAlign=middle;resizable=0;points=[];" vertex="1" connectable="0" parent="09HEf_mXD0H9hIQZzznc-22">
          <mxGeometry x="-0.1954" y="-1" relative="1" as="geometry">
            <mxPoint as="offset" />
          </mxGeometry>
        </mxCell>
        <mxCell id="09HEf_mXD0H9hIQZzznc-19" value="项目可以从交&lt;div&gt;换库中提供？&lt;/div&gt;" style="rhombus;whiteSpace=wrap;html=1;" vertex="1" parent="09HEf_mXD0H9hIQZzznc-2">
          <mxGeometry x="21.25" y="90" width="107.5" height="80" as="geometry" />
        </mxCell>
        <mxCell id="09HEf_mXD0H9hIQZzznc-3" value="业务系统前台" style="swimlane;startSize=20;html=1;" vertex="1" parent="09HEf_mXD0H9hIQZzznc-1">
          <mxGeometry x="300" y="20" width="150" height="550" as="geometry" />
        </mxCell>
        <mxCell id="09HEf_mXD0H9hIQZzznc-13" value="&lt;div&gt;&lt;span style=&quot;background-color: initial;&quot;&gt;检验录入内容&lt;/span&gt;&lt;br&gt;&lt;/div&gt;" style="rounded=0;whiteSpace=wrap;html=1;" vertex="1" parent="09HEf_mXD0H9hIQZzznc-3">
          <mxGeometry x="14.999999999999545" y="270" width="120" height="60" as="geometry" />
        </mxCell>
        <mxCell id="09HEf_mXD0H9hIQZzznc-4" value="业务系统后台" style="swimlane;startSize=20;html=1;" vertex="1" parent="09HEf_mXD0H9hIQZzznc-1">
          <mxGeometry x="450" y="20" width="140" height="550" as="geometry">
            <mxRectangle x="300" y="20" width="40" height="550" as="alternateBounds" />
          </mxGeometry>
        </mxCell>
        <mxCell id="09HEf_mXD0H9hIQZzznc-14" value="数据格式转换" style="rounded=0;whiteSpace=wrap;html=1;" vertex="1" parent="09HEf_mXD0H9hIQZzznc-4">
          <mxGeometry x="9.999999999999545" y="320" width="120" height="60" as="geometry" />
        </mxCell>
        <mxCell id="09HEf_mXD0H9hIQZzznc-24" value="查询时间段项目信息" style="rounded=0;whiteSpace=wrap;html=1;" vertex="1" parent="09HEf_mXD0H9hIQZzznc-4">
          <mxGeometry x="9.999999999999545" y="100" width="120" height="60" as="geometry" />
        </mxCell>
        <mxCell id="09HEf_mXD0H9hIQZzznc-33" value="查询时间段项目信息" style="rounded=0;whiteSpace=wrap;html=1;" vertex="1" parent="09HEf_mXD0H9hIQZzznc-4">
          <mxGeometry x="9.999999999999545" y="420" width="120" height="60" as="geometry" />
        </mxCell>
        <mxCell id="09HEf_mXD0H9hIQZzznc-23" value="交换库（住建水利交通）" style="swimlane;startSize=20;html=1;" vertex="1" parent="09HEf_mXD0H9hIQZzznc-1">
          <mxGeometry x="590" y="20" width="149.99999999999955" height="550" as="geometry">
            <mxRectangle x="300" y="20" width="40" height="550" as="alternateBounds" />
          </mxGeometry>
        </mxCell>
        <mxCell id="09HEf_mXD0H9hIQZzznc-31" value="提供项目信息" style="whiteSpace=wrap;html=1;rounded=0;" vertex="1" parent="09HEf_mXD0H9hIQZzznc-23">
          <mxGeometry x="14.999999999999545" y="170" width="120" height="60" as="geometry" />
        </mxCell>
        <mxCell id="09HEf_mXD0H9hIQZzznc-35" value="档案中心" style="swimlane;startSize=20;html=1;" vertex="1" parent="09HEf_mXD0H9hIQZzznc-1">
          <mxGeometry x="739.9999999999995" y="20" width="149.99999999999955" height="550" as="geometry">
            <mxRectangle x="300" y="20" width="40" height="550" as="alternateBounds" />
          </mxGeometry>
        </mxCell>
        <mxCell id="09HEf_mXD0H9hIQZzznc-36" value="提供项目信息" style="whiteSpace=wrap;html=1;rounded=0;" vertex="1" parent="09HEf_mXD0H9hIQZzznc-35">
          <mxGeometry x="14.999999999999545" y="170" width="120" height="60" as="geometry" />
        </mxCell>
        <mxCell id="09HEf_mXD0H9hIQZzznc-37" value="消息中心" style="swimlane;startSize=20;html=1;" vertex="1" parent="09HEf_mXD0H9hIQZzznc-1">
          <mxGeometry x="889.9999999999991" y="20" width="149.99999999999955" height="550" as="geometry">
            <mxRectangle x="300" y="20" width="40" height="550" as="alternateBounds" />
          </mxGeometry>
        </mxCell>
        <mxCell id="09HEf_mXD0H9hIQZzznc-38" value="提供项目信息" style="whiteSpace=wrap;html=1;rounded=0;" vertex="1" parent="09HEf_mXD0H9hIQZzznc-37">
          <mxGeometry x="14.999999999999545" y="170" width="120" height="60" as="geometry" />
        </mxCell>
        <mxCell id="09HEf_mXD0H9hIQZzznc-8" style="edgeStyle=orthogonalEdgeStyle;rounded=0;orthogonalLoop=1;jettySize=auto;html=1;exitX=1;exitY=0.5;exitDx=0;exitDy=0;entryX=0.5;entryY=0;entryDx=0;entryDy=0;" edge="1" parent="09HEf_mXD0H9hIQZzznc-1" source="09HEf_mXD0H9hIQZzznc-12" target="09HEf_mXD0H9hIQZzznc-13">
          <mxGeometry relative="1" as="geometry">
            <mxPoint x="129.99999999999955" y="90" as="sourcePoint" />
            <mxPoint x="210" y="110" as="targetPoint" />
          </mxGeometry>
        </mxCell>
        <mxCell id="09HEf_mXD0H9hIQZzznc-10" style="edgeStyle=orthogonalEdgeStyle;rounded=0;orthogonalLoop=1;jettySize=auto;html=1;entryX=0.5;entryY=0;entryDx=0;entryDy=0;exitX=1;exitY=0.5;exitDx=0;exitDy=0;" edge="1" parent="09HEf_mXD0H9hIQZzznc-1" source="09HEf_mXD0H9hIQZzznc-13" target="09HEf_mXD0H9hIQZzznc-14">
          <mxGeometry relative="1" as="geometry">
            <mxPoint x="260" y="145" as="sourcePoint" />
            <mxPoint x="345" y="170" as="targetPoint" />
          </mxGeometry>
        </mxCell>
        <mxCell id="09HEf_mXD0H9hIQZzznc-25" style="edgeStyle=orthogonalEdgeStyle;rounded=0;orthogonalLoop=1;jettySize=auto;html=1;entryX=0;entryY=0.5;entryDx=0;entryDy=0;" edge="1" parent="09HEf_mXD0H9hIQZzznc-1" source="09HEf_mXD0H9hIQZzznc-19" target="09HEf_mXD0H9hIQZzznc-24">
          <mxGeometry relative="1" as="geometry" />
        </mxCell>
        <mxCell id="09HEf_mXD0H9hIQZzznc-28" value="YES" style="edgeLabel;html=1;align=center;verticalAlign=middle;resizable=0;points=[];" vertex="1" connectable="0" parent="09HEf_mXD0H9hIQZzznc-25">
          <mxGeometry x="-0.3157" relative="1" as="geometry">
            <mxPoint as="offset" />
          </mxGeometry>
        </mxCell>
        <mxCell id="09HEf_mXD0H9hIQZzznc-34" style="edgeStyle=orthogonalEdgeStyle;rounded=0;orthogonalLoop=1;jettySize=auto;html=1;entryX=1;entryY=0.5;entryDx=0;entryDy=0;exitX=0.5;exitY=1;exitDx=0;exitDy=0;" edge="1" parent="09HEf_mXD0H9hIQZzznc-1" source="09HEf_mXD0H9hIQZzznc-31" target="09HEf_mXD0H9hIQZzznc-14">
          <mxGeometry relative="1" as="geometry" />
        </mxCell>
        <mxCell id="09HEf_mXD0H9hIQZzznc-32" value="" style="edgeStyle=orthogonalEdgeStyle;rounded=0;orthogonalLoop=1;jettySize=auto;html=1;exitX=1;exitY=0.5;exitDx=0;exitDy=0;" edge="1" parent="09HEf_mXD0H9hIQZzznc-1" source="09HEf_mXD0H9hIQZzznc-24" target="09HEf_mXD0H9hIQZzznc-31">
          <mxGeometry relative="1" as="geometry">
            <mxPoint x="419.99999999999955" y="150.0000000000001" as="sourcePoint" />
          </mxGeometry>
        </mxCell>
      </root>
    </mxGraphModel>
  </diagram>
</mxfile>
